<mxfile host="app.diagrams.net" modified="2021-08-21T08:29:57.731Z" agent="5.0 (Windows NT 10.0; Win64; x64) AppleWebKit/537.36 (KHTML, like Gecko) Chrome/92.0.4515.131 Safari/537.36 Edg/92.0.902.73" etag="zKdEKkr2A0qqsTlkNm0z" version="14.8.2" type="github">
  <diagram id="C5RBs43oDa-KdzZeNtuy" name="lora干扰器">
    <mxGraphModel dx="1422" dy="794" grid="1" gridSize="10" guides="1" tooltips="1" connect="1" arrows="1" fold="1" page="1" pageScale="1" pageWidth="8000" pageHeight="2000" math="0" shadow="0">
      <root>
        <mxCell id="WIyWlLk6GJQsqaUBKTNV-0" />
        <mxCell id="WIyWlLk6GJQsqaUBKTNV-1" parent="WIyWlLk6GJQsqaUBKTNV-0" />
        <mxCell id="DPIdeWqztk1nEDOr0wN0-2" value="" style="edgeStyle=orthogonalEdgeStyle;rounded=0;orthogonalLoop=1;jettySize=auto;html=1;" parent="WIyWlLk6GJQsqaUBKTNV-1" source="DPIdeWqztk1nEDOr0wN0-0" target="DPIdeWqztk1nEDOr0wN0-1" edge="1">
          <mxGeometry relative="1" as="geometry" />
        </mxCell>
        <mxCell id="DPIdeWqztk1nEDOr0wN0-0" value="main线程" style="rounded=1;whiteSpace=wrap;html=1;" parent="WIyWlLk6GJQsqaUBKTNV-1" vertex="1">
          <mxGeometry x="220" y="130" width="120" height="60" as="geometry" />
        </mxCell>
        <mxCell id="DPIdeWqztk1nEDOr0wN0-4" value="" style="edgeStyle=orthogonalEdgeStyle;rounded=0;orthogonalLoop=1;jettySize=auto;html=1;" parent="WIyWlLk6GJQsqaUBKTNV-1" source="DPIdeWqztk1nEDOr0wN0-1" target="DPIdeWqztk1nEDOr0wN0-3" edge="1">
          <mxGeometry relative="1" as="geometry" />
        </mxCell>
        <mxCell id="DPIdeWqztk1nEDOr0wN0-1" value="初始化：&lt;br&gt;lora模块选择IO、" style="whiteSpace=wrap;html=1;rounded=1;" parent="WIyWlLk6GJQsqaUBKTNV-1" vertex="1">
          <mxGeometry x="220" y="270" width="120" height="60" as="geometry" />
        </mxCell>
        <mxCell id="DPIdeWqztk1nEDOr0wN0-3" value="线程初始化：&lt;br&gt;LED应用初始化、&lt;br&gt;Lora应用初始化、&lt;br&gt;Time应用初始化、" style="whiteSpace=wrap;html=1;rounded=1;" parent="WIyWlLk6GJQsqaUBKTNV-1" vertex="1">
          <mxGeometry x="220" y="410" width="120" height="80" as="geometry" />
        </mxCell>
        <mxCell id="Qv55hIh1fnBiH20ml6r6-55" value="" style="group" vertex="1" connectable="0" parent="WIyWlLk6GJQsqaUBKTNV-1">
          <mxGeometry x="1280" y="80" width="970" height="1360" as="geometry" />
        </mxCell>
        <mxCell id="DPIdeWqztk1nEDOr0wN0-70" value="" style="rounded=0;whiteSpace=wrap;html=1;dashed=1;sketch=0;glass=1;" parent="Qv55hIh1fnBiH20ml6r6-55" vertex="1">
          <mxGeometry x="240" y="990" width="730" height="370" as="geometry" />
        </mxCell>
        <mxCell id="DPIdeWqztk1nEDOr0wN0-7" value="LED应用线程" style="rounded=1;whiteSpace=wrap;html=1;" parent="Qv55hIh1fnBiH20ml6r6-55" vertex="1">
          <mxGeometry x="90" width="120" height="60" as="geometry" />
        </mxCell>
        <mxCell id="DPIdeWqztk1nEDOr0wN0-8" value="LED线程资源初始化：&lt;br&gt;LED消息邮箱初始化、&lt;br&gt;LED线程处理函数初始化、" style="whiteSpace=wrap;html=1;rounded=1;" parent="Qv55hIh1fnBiH20ml6r6-55" vertex="1">
          <mxGeometry x="60" y="140" width="180" height="60" as="geometry" />
        </mxCell>
        <mxCell id="DPIdeWqztk1nEDOr0wN0-9" value="" style="edgeStyle=orthogonalEdgeStyle;rounded=0;orthogonalLoop=1;jettySize=auto;html=1;" parent="Qv55hIh1fnBiH20ml6r6-55" source="DPIdeWqztk1nEDOr0wN0-7" target="DPIdeWqztk1nEDOr0wN0-8" edge="1">
          <mxGeometry as="geometry" />
        </mxCell>
        <mxCell id="DPIdeWqztk1nEDOr0wN0-12" value="LED线程处理函数" style="whiteSpace=wrap;html=1;rounded=1;" parent="Qv55hIh1fnBiH20ml6r6-55" vertex="1">
          <mxGeometry x="90" y="280" width="120" height="60" as="geometry" />
        </mxCell>
        <mxCell id="DPIdeWqztk1nEDOr0wN0-13" value="" style="edgeStyle=orthogonalEdgeStyle;rounded=0;orthogonalLoop=1;jettySize=auto;html=1;" parent="Qv55hIh1fnBiH20ml6r6-55" source="DPIdeWqztk1nEDOr0wN0-8" target="DPIdeWqztk1nEDOr0wN0-12" edge="1">
          <mxGeometry as="geometry" />
        </mxCell>
        <mxCell id="DPIdeWqztk1nEDOr0wN0-14" value="初始化LED资源列表" style="whiteSpace=wrap;html=1;rounded=1;" parent="Qv55hIh1fnBiH20ml6r6-55" vertex="1">
          <mxGeometry x="90" y="420" width="120" height="60" as="geometry" />
        </mxCell>
        <mxCell id="DPIdeWqztk1nEDOr0wN0-15" value="" style="edgeStyle=orthogonalEdgeStyle;rounded=0;orthogonalLoop=1;jettySize=auto;html=1;" parent="Qv55hIh1fnBiH20ml6r6-55" source="DPIdeWqztk1nEDOr0wN0-12" target="DPIdeWqztk1nEDOr0wN0-14" edge="1">
          <mxGeometry as="geometry" />
        </mxCell>
        <mxCell id="DPIdeWqztk1nEDOr0wN0-18" value="消息邮箱是否&lt;br&gt;为空" style="rhombus;whiteSpace=wrap;html=1;" parent="Qv55hIh1fnBiH20ml6r6-55" vertex="1">
          <mxGeometry x="100" y="540" width="100" height="90" as="geometry" />
        </mxCell>
        <mxCell id="DPIdeWqztk1nEDOr0wN0-38" style="edgeStyle=orthogonalEdgeStyle;rounded=0;orthogonalLoop=1;jettySize=auto;html=1;exitX=0.5;exitY=1;exitDx=0;exitDy=0;entryX=0.5;entryY=0;entryDx=0;entryDy=0;" parent="Qv55hIh1fnBiH20ml6r6-55" source="DPIdeWqztk1nEDOr0wN0-14" target="DPIdeWqztk1nEDOr0wN0-18" edge="1">
          <mxGeometry as="geometry" />
        </mxCell>
        <mxCell id="DPIdeWqztk1nEDOr0wN0-19" value="读取消息；&lt;br&gt;解析消息内容；" style="whiteSpace=wrap;html=1;" parent="Qv55hIh1fnBiH20ml6r6-55" vertex="1">
          <mxGeometry x="270" y="555" width="220" height="60" as="geometry" />
        </mxCell>
        <mxCell id="DPIdeWqztk1nEDOr0wN0-20" value="" style="edgeStyle=orthogonalEdgeStyle;rounded=0;orthogonalLoop=1;jettySize=auto;html=1;" parent="Qv55hIh1fnBiH20ml6r6-55" source="DPIdeWqztk1nEDOr0wN0-18" target="DPIdeWqztk1nEDOr0wN0-19" edge="1">
          <mxGeometry as="geometry">
            <Array as="points">
              <mxPoint x="220" y="585" />
              <mxPoint x="220" y="585" />
            </Array>
          </mxGeometry>
        </mxCell>
        <mxCell id="DPIdeWqztk1nEDOr0wN0-36" value="否" style="edgeLabel;html=1;align=center;verticalAlign=middle;resizable=0;points=[];" parent="DPIdeWqztk1nEDOr0wN0-20" vertex="1" connectable="0">
          <mxGeometry x="-0.2619" y="-1" relative="1" as="geometry">
            <mxPoint as="offset" />
          </mxGeometry>
        </mxCell>
        <mxCell id="DPIdeWqztk1nEDOr0wN0-21" value="&lt;span&gt;LED消息邮箱结构：&lt;/span&gt;" style="rounded=0;whiteSpace=wrap;html=1;" parent="Qv55hIh1fnBiH20ml6r6-55" vertex="1">
          <mxGeometry x="310" y="140" width="120" height="60" as="geometry" />
        </mxCell>
        <mxCell id="DPIdeWqztk1nEDOr0wN0-22" value="判断消息pin是否&lt;br&gt;在LED资源列表" style="rhombus;whiteSpace=wrap;html=1;" parent="Qv55hIh1fnBiH20ml6r6-55" vertex="1">
          <mxGeometry x="320" y="690" width="120" height="90" as="geometry" />
        </mxCell>
        <mxCell id="DPIdeWqztk1nEDOr0wN0-26" style="edgeStyle=orthogonalEdgeStyle;rounded=0;orthogonalLoop=1;jettySize=auto;html=1;exitX=0.5;exitY=1;exitDx=0;exitDy=0;entryX=0.5;entryY=0;entryDx=0;entryDy=0;" parent="Qv55hIh1fnBiH20ml6r6-55" source="DPIdeWqztk1nEDOr0wN0-19" target="DPIdeWqztk1nEDOr0wN0-22" edge="1">
          <mxGeometry as="geometry" />
        </mxCell>
        <mxCell id="DPIdeWqztk1nEDOr0wN0-23" value="初始化该LED引脚；&lt;br&gt;添加该pin到LED资料列表；" style="rounded=0;whiteSpace=wrap;html=1;" parent="Qv55hIh1fnBiH20ml6r6-55" vertex="1">
          <mxGeometry x="520" y="705" width="190" height="60" as="geometry" />
        </mxCell>
        <mxCell id="DPIdeWqztk1nEDOr0wN0-27" style="edgeStyle=orthogonalEdgeStyle;rounded=0;orthogonalLoop=1;jettySize=auto;html=1;exitX=1;exitY=0.5;exitDx=0;exitDy=0;entryX=0;entryY=0.5;entryDx=0;entryDy=0;" parent="Qv55hIh1fnBiH20ml6r6-55" source="DPIdeWqztk1nEDOr0wN0-22" target="DPIdeWqztk1nEDOr0wN0-23" edge="1">
          <mxGeometry as="geometry" />
        </mxCell>
        <mxCell id="DPIdeWqztk1nEDOr0wN0-30" value="否" style="edgeLabel;html=1;align=center;verticalAlign=middle;resizable=0;points=[];" parent="DPIdeWqztk1nEDOr0wN0-27" vertex="1" connectable="0">
          <mxGeometry x="-0.2" y="-1" relative="1" as="geometry">
            <mxPoint y="-1" as="offset" />
          </mxGeometry>
        </mxCell>
        <mxCell id="DPIdeWqztk1nEDOr0wN0-37" value="根据pin索引更新消息内容&lt;br&gt;到LED资源列表" style="rounded=0;whiteSpace=wrap;html=1;" parent="Qv55hIh1fnBiH20ml6r6-55" vertex="1">
          <mxGeometry x="295" y="870" width="170" height="60" as="geometry" />
        </mxCell>
        <mxCell id="DPIdeWqztk1nEDOr0wN0-28" style="edgeStyle=orthogonalEdgeStyle;rounded=0;orthogonalLoop=1;jettySize=auto;html=1;exitX=0.5;exitY=1;exitDx=0;exitDy=0;entryX=0.5;entryY=0;entryDx=0;entryDy=0;" parent="Qv55hIh1fnBiH20ml6r6-55" source="DPIdeWqztk1nEDOr0wN0-22" target="DPIdeWqztk1nEDOr0wN0-37" edge="1">
          <mxGeometry as="geometry">
            <mxPoint x="430" y="920" as="targetPoint" />
          </mxGeometry>
        </mxCell>
        <mxCell id="DPIdeWqztk1nEDOr0wN0-35" value="是" style="edgeLabel;html=1;align=center;verticalAlign=middle;resizable=0;points=[];" parent="DPIdeWqztk1nEDOr0wN0-28" vertex="1" connectable="0">
          <mxGeometry x="-0.6383" y="-1" relative="1" as="geometry">
            <mxPoint x="1" as="offset" />
          </mxGeometry>
        </mxCell>
        <mxCell id="DPIdeWqztk1nEDOr0wN0-29" style="edgeStyle=orthogonalEdgeStyle;rounded=0;orthogonalLoop=1;jettySize=auto;html=1;exitX=0.5;exitY=1;exitDx=0;exitDy=0;entryX=1;entryY=0.5;entryDx=0;entryDy=0;" parent="Qv55hIh1fnBiH20ml6r6-55" source="DPIdeWqztk1nEDOr0wN0-23" target="DPIdeWqztk1nEDOr0wN0-37" edge="1">
          <mxGeometry as="geometry">
            <mxPoint x="290" y="920" as="targetPoint" />
          </mxGeometry>
        </mxCell>
        <mxCell id="DPIdeWqztk1nEDOr0wN0-40" value="遍历读取LED资源列表元素；&lt;br&gt;根据状态执行动作；" style="rounded=0;whiteSpace=wrap;html=1;" parent="Qv55hIh1fnBiH20ml6r6-55" vertex="1">
          <mxGeometry x="70" y="870" width="160" height="60" as="geometry" />
        </mxCell>
        <mxCell id="DPIdeWqztk1nEDOr0wN0-25" value="" style="edgeStyle=orthogonalEdgeStyle;rounded=0;orthogonalLoop=1;jettySize=auto;html=1;entryX=0.5;entryY=0;entryDx=0;entryDy=0;" parent="Qv55hIh1fnBiH20ml6r6-55" source="DPIdeWqztk1nEDOr0wN0-18" target="DPIdeWqztk1nEDOr0wN0-40" edge="1">
          <mxGeometry as="geometry">
            <mxPoint x="150" y="870" as="targetPoint" />
          </mxGeometry>
        </mxCell>
        <mxCell id="DPIdeWqztk1nEDOr0wN0-33" value="是" style="edgeLabel;html=1;align=center;verticalAlign=middle;resizable=0;points=[];" parent="DPIdeWqztk1nEDOr0wN0-25" vertex="1" connectable="0">
          <mxGeometry x="-0.3153" y="-2" relative="1" as="geometry">
            <mxPoint x="2" as="offset" />
          </mxGeometry>
        </mxCell>
        <mxCell id="DPIdeWqztk1nEDOr0wN0-60" style="edgeStyle=orthogonalEdgeStyle;rounded=0;orthogonalLoop=1;jettySize=auto;html=1;exitX=0;exitY=0.5;exitDx=0;exitDy=0;entryX=1;entryY=0.5;entryDx=0;entryDy=0;" parent="Qv55hIh1fnBiH20ml6r6-55" source="DPIdeWqztk1nEDOr0wN0-37" target="DPIdeWqztk1nEDOr0wN0-40" edge="1">
          <mxGeometry as="geometry" />
        </mxCell>
        <mxCell id="DPIdeWqztk1nEDOr0wN0-41" value="判断该LED&lt;br&gt;状态" style="rhombus;whiteSpace=wrap;html=1;" parent="Qv55hIh1fnBiH20ml6r6-55" vertex="1">
          <mxGeometry x="280" y="1010" width="80" height="80" as="geometry" />
        </mxCell>
        <mxCell id="DPIdeWqztk1nEDOr0wN0-42" value="打开：&lt;br&gt;LED_ON" style="rounded=0;whiteSpace=wrap;html=1;" parent="Qv55hIh1fnBiH20ml6r6-55" vertex="1">
          <mxGeometry x="260" y="1130" width="120" height="60" as="geometry" />
        </mxCell>
        <mxCell id="DPIdeWqztk1nEDOr0wN0-66" style="edgeStyle=orthogonalEdgeStyle;rounded=0;orthogonalLoop=1;jettySize=auto;html=1;exitX=0.5;exitY=1;exitDx=0;exitDy=0;entryX=0.5;entryY=0;entryDx=0;entryDy=0;" parent="Qv55hIh1fnBiH20ml6r6-55" source="DPIdeWqztk1nEDOr0wN0-41" target="DPIdeWqztk1nEDOr0wN0-42" edge="1">
          <mxGeometry as="geometry" />
        </mxCell>
        <mxCell id="DPIdeWqztk1nEDOr0wN0-43" value="关闭：&lt;br&gt;LED_OFF" style="rounded=0;whiteSpace=wrap;html=1;" parent="Qv55hIh1fnBiH20ml6r6-55" vertex="1">
          <mxGeometry x="460" y="1130" width="120" height="60" as="geometry" />
        </mxCell>
        <mxCell id="DPIdeWqztk1nEDOr0wN0-67" style="edgeStyle=orthogonalEdgeStyle;rounded=0;orthogonalLoop=1;jettySize=auto;html=1;exitX=1;exitY=0.5;exitDx=0;exitDy=0;entryX=0.5;entryY=0;entryDx=0;entryDy=0;" parent="Qv55hIh1fnBiH20ml6r6-55" source="DPIdeWqztk1nEDOr0wN0-41" target="DPIdeWqztk1nEDOr0wN0-43" edge="1">
          <mxGeometry as="geometry" />
        </mxCell>
        <mxCell id="DPIdeWqztk1nEDOr0wN0-44" value="翻转：&lt;br&gt;LED_TORRGLE" style="rounded=0;whiteSpace=wrap;html=1;" parent="Qv55hIh1fnBiH20ml6r6-55" vertex="1">
          <mxGeometry x="650" y="1130" width="120" height="60" as="geometry" />
        </mxCell>
        <mxCell id="DPIdeWqztk1nEDOr0wN0-68" style="edgeStyle=orthogonalEdgeStyle;rounded=0;orthogonalLoop=1;jettySize=auto;html=1;exitX=1;exitY=0.5;exitDx=0;exitDy=0;entryX=0.5;entryY=0;entryDx=0;entryDy=0;" parent="Qv55hIh1fnBiH20ml6r6-55" source="DPIdeWqztk1nEDOr0wN0-41" target="DPIdeWqztk1nEDOr0wN0-44" edge="1">
          <mxGeometry as="geometry" />
        </mxCell>
        <mxCell id="DPIdeWqztk1nEDOr0wN0-45" value="心跳：&lt;br&gt;LED_HEARTBEAT" style="rounded=0;whiteSpace=wrap;html=1;" parent="Qv55hIh1fnBiH20ml6r6-55" vertex="1">
          <mxGeometry x="830" y="1130" width="120" height="60" as="geometry" />
        </mxCell>
        <mxCell id="DPIdeWqztk1nEDOr0wN0-69" style="edgeStyle=orthogonalEdgeStyle;rounded=0;orthogonalLoop=1;jettySize=auto;html=1;exitX=1;exitY=0.5;exitDx=0;exitDy=0;" parent="Qv55hIh1fnBiH20ml6r6-55" source="DPIdeWqztk1nEDOr0wN0-41" target="DPIdeWqztk1nEDOr0wN0-45" edge="1">
          <mxGeometry as="geometry" />
        </mxCell>
        <mxCell id="DPIdeWqztk1nEDOr0wN0-46" value="控制该pin打开；" style="whiteSpace=wrap;html=1;rounded=0;" parent="Qv55hIh1fnBiH20ml6r6-55" vertex="1">
          <mxGeometry x="260" y="1270" width="120" height="60" as="geometry" />
        </mxCell>
        <mxCell id="DPIdeWqztk1nEDOr0wN0-47" value="" style="edgeStyle=orthogonalEdgeStyle;rounded=0;orthogonalLoop=1;jettySize=auto;html=1;" parent="Qv55hIh1fnBiH20ml6r6-55" source="DPIdeWqztk1nEDOr0wN0-42" target="DPIdeWqztk1nEDOr0wN0-46" edge="1">
          <mxGeometry as="geometry" />
        </mxCell>
        <mxCell id="DPIdeWqztk1nEDOr0wN0-48" value="控制该pin关闭；" style="whiteSpace=wrap;html=1;rounded=0;" parent="Qv55hIh1fnBiH20ml6r6-55" vertex="1">
          <mxGeometry x="460" y="1270" width="120" height="60" as="geometry" />
        </mxCell>
        <mxCell id="DPIdeWqztk1nEDOr0wN0-53" style="edgeStyle=orthogonalEdgeStyle;rounded=0;orthogonalLoop=1;jettySize=auto;html=1;exitX=0.5;exitY=1;exitDx=0;exitDy=0;entryX=0.5;entryY=0;entryDx=0;entryDy=0;" parent="Qv55hIh1fnBiH20ml6r6-55" source="DPIdeWqztk1nEDOr0wN0-43" target="DPIdeWqztk1nEDOr0wN0-48" edge="1">
          <mxGeometry as="geometry" />
        </mxCell>
        <mxCell id="DPIdeWqztk1nEDOr0wN0-50" value="控制该pin翻转；" style="whiteSpace=wrap;html=1;rounded=0;" parent="Qv55hIh1fnBiH20ml6r6-55" vertex="1">
          <mxGeometry x="650" y="1270" width="120" height="60" as="geometry" />
        </mxCell>
        <mxCell id="DPIdeWqztk1nEDOr0wN0-54" style="edgeStyle=orthogonalEdgeStyle;rounded=0;orthogonalLoop=1;jettySize=auto;html=1;exitX=0.5;exitY=1;exitDx=0;exitDy=0;entryX=0.5;entryY=0;entryDx=0;entryDy=0;" parent="Qv55hIh1fnBiH20ml6r6-55" source="DPIdeWqztk1nEDOr0wN0-44" target="DPIdeWqztk1nEDOr0wN0-50" edge="1">
          <mxGeometry as="geometry" />
        </mxCell>
        <mxCell id="DPIdeWqztk1nEDOr0wN0-56" style="edgeStyle=orthogonalEdgeStyle;rounded=0;orthogonalLoop=1;jettySize=auto;html=1;exitX=0;exitY=0.5;exitDx=0;exitDy=0;entryX=1;entryY=0.5;entryDx=0;entryDy=0;" parent="Qv55hIh1fnBiH20ml6r6-55" source="DPIdeWqztk1nEDOr0wN0-51" target="DPIdeWqztk1nEDOr0wN0-50" edge="1">
          <mxGeometry as="geometry" />
        </mxCell>
        <mxCell id="DPIdeWqztk1nEDOr0wN0-57" value="是" style="edgeLabel;html=1;align=center;verticalAlign=middle;resizable=0;points=[];" parent="DPIdeWqztk1nEDOr0wN0-56" vertex="1" connectable="0">
          <mxGeometry x="0.3438" y="-1" relative="1" as="geometry">
            <mxPoint x="11" y="1" as="offset" />
          </mxGeometry>
        </mxCell>
        <mxCell id="DPIdeWqztk1nEDOr0wN0-51" value="判断时间计数是否&lt;br&gt;大于(freq)" style="rhombus;whiteSpace=wrap;html=1;" parent="Qv55hIh1fnBiH20ml6r6-55" vertex="1">
          <mxGeometry x="830" y="1250" width="120" height="100" as="geometry" />
        </mxCell>
        <mxCell id="DPIdeWqztk1nEDOr0wN0-55" style="edgeStyle=orthogonalEdgeStyle;rounded=0;orthogonalLoop=1;jettySize=auto;html=1;exitX=0.5;exitY=1;exitDx=0;exitDy=0;entryX=0.5;entryY=0;entryDx=0;entryDy=0;" parent="Qv55hIh1fnBiH20ml6r6-55" source="DPIdeWqztk1nEDOr0wN0-45" target="DPIdeWqztk1nEDOr0wN0-51" edge="1">
          <mxGeometry as="geometry" />
        </mxCell>
        <mxCell id="DPIdeWqztk1nEDOr0wN0-62" style="edgeStyle=orthogonalEdgeStyle;rounded=0;orthogonalLoop=1;jettySize=auto;html=1;exitX=0;exitY=0.5;exitDx=0;exitDy=0;entryX=0;entryY=0.5;entryDx=0;entryDy=0;" parent="Qv55hIh1fnBiH20ml6r6-55" source="DPIdeWqztk1nEDOr0wN0-58" target="DPIdeWqztk1nEDOr0wN0-18" edge="1">
          <mxGeometry as="geometry">
            <Array as="points">
              <mxPoint y="1300" />
              <mxPoint y="585" />
            </Array>
          </mxGeometry>
        </mxCell>
        <mxCell id="DPIdeWqztk1nEDOr0wN0-58" value="延时10ms" style="rounded=0;whiteSpace=wrap;html=1;" parent="Qv55hIh1fnBiH20ml6r6-55" vertex="1">
          <mxGeometry x="90" y="1270" width="120" height="60" as="geometry" />
        </mxCell>
        <mxCell id="DPIdeWqztk1nEDOr0wN0-61" style="edgeStyle=orthogonalEdgeStyle;rounded=0;orthogonalLoop=1;jettySize=auto;html=1;exitX=0.5;exitY=1;exitDx=0;exitDy=0;entryX=0.5;entryY=0;entryDx=0;entryDy=0;" parent="Qv55hIh1fnBiH20ml6r6-55" source="DPIdeWqztk1nEDOr0wN0-40" target="DPIdeWqztk1nEDOr0wN0-58" edge="1">
          <mxGeometry as="geometry" />
        </mxCell>
        <mxCell id="DPIdeWqztk1nEDOr0wN0-71" value="" style="shape=flexArrow;endArrow=classic;html=1;entryX=0;entryY=0;entryDx=0;entryDy=0;exitX=1;exitY=1;exitDx=0;exitDy=0;" parent="Qv55hIh1fnBiH20ml6r6-55" source="DPIdeWqztk1nEDOr0wN0-40" target="DPIdeWqztk1nEDOr0wN0-70" edge="1">
          <mxGeometry width="50" height="50" as="geometry">
            <mxPoint x="200" y="1000" as="sourcePoint" />
            <mxPoint x="250" y="950" as="targetPoint" />
          </mxGeometry>
        </mxCell>
        <mxCell id="Qv55hIh1fnBiH20ml6r6-53" value="接收LED邮箱消息初始化led硬件；&lt;br&gt;根据消息更新LED资料列表；&lt;br&gt;轮询LED资源列表完成LED控制；" style="whiteSpace=wrap;html=1;rounded=1;" vertex="1" parent="Qv55hIh1fnBiH20ml6r6-55">
          <mxGeometry x="320" width="200" height="60" as="geometry" />
        </mxCell>
        <mxCell id="Qv55hIh1fnBiH20ml6r6-54" value="" style="edgeStyle=orthogonalEdgeStyle;rounded=0;orthogonalLoop=1;jettySize=auto;html=1;" edge="1" parent="Qv55hIh1fnBiH20ml6r6-55" source="DPIdeWqztk1nEDOr0wN0-7" target="Qv55hIh1fnBiH20ml6r6-53">
          <mxGeometry as="geometry" />
        </mxCell>
        <mxCell id="Qv55hIh1fnBiH20ml6r6-116" value="" style="group" vertex="1" connectable="0" parent="WIyWlLk6GJQsqaUBKTNV-1">
          <mxGeometry x="3050" y="80" width="970" height="1370" as="geometry" />
        </mxCell>
        <mxCell id="Qv55hIh1fnBiH20ml6r6-3" value="" style="rounded=0;whiteSpace=wrap;html=1;dashed=1;sketch=0;glass=1;container=0;" vertex="1" parent="Qv55hIh1fnBiH20ml6r6-116">
          <mxGeometry x="240" y="1000" width="730" height="370" as="geometry" />
        </mxCell>
        <mxCell id="Qv55hIh1fnBiH20ml6r6-4" value="Time应用线程" style="rounded=1;whiteSpace=wrap;html=1;container=0;" vertex="1" parent="Qv55hIh1fnBiH20ml6r6-116">
          <mxGeometry x="90" y="10" width="120" height="60" as="geometry" />
        </mxCell>
        <mxCell id="Qv55hIh1fnBiH20ml6r6-5" value="Time线程资源初始化：&lt;br&gt;Time消息邮箱初始化、&lt;br&gt;Time线程处理函数初始化、" style="whiteSpace=wrap;html=1;rounded=1;container=0;" vertex="1" parent="Qv55hIh1fnBiH20ml6r6-116">
          <mxGeometry x="60" y="150" width="180" height="60" as="geometry" />
        </mxCell>
        <mxCell id="Qv55hIh1fnBiH20ml6r6-6" value="" style="edgeStyle=orthogonalEdgeStyle;rounded=0;orthogonalLoop=1;jettySize=auto;html=1;" edge="1" parent="Qv55hIh1fnBiH20ml6r6-116" source="Qv55hIh1fnBiH20ml6r6-4" target="Qv55hIh1fnBiH20ml6r6-5">
          <mxGeometry y="10" as="geometry" />
        </mxCell>
        <mxCell id="Qv55hIh1fnBiH20ml6r6-7" value="Time线程处理函数" style="whiteSpace=wrap;html=1;rounded=1;container=0;" vertex="1" parent="Qv55hIh1fnBiH20ml6r6-116">
          <mxGeometry x="90" y="290" width="120" height="60" as="geometry" />
        </mxCell>
        <mxCell id="Qv55hIh1fnBiH20ml6r6-8" value="" style="edgeStyle=orthogonalEdgeStyle;rounded=0;orthogonalLoop=1;jettySize=auto;html=1;" edge="1" parent="Qv55hIh1fnBiH20ml6r6-116" source="Qv55hIh1fnBiH20ml6r6-5" target="Qv55hIh1fnBiH20ml6r6-7">
          <mxGeometry y="10" as="geometry" />
        </mxCell>
        <mxCell id="Qv55hIh1fnBiH20ml6r6-9" value="初始化RTC驱动；" style="whiteSpace=wrap;html=1;rounded=1;container=0;" vertex="1" parent="Qv55hIh1fnBiH20ml6r6-116">
          <mxGeometry x="90" y="430" width="120" height="60" as="geometry" />
        </mxCell>
        <mxCell id="Qv55hIh1fnBiH20ml6r6-10" value="" style="edgeStyle=orthogonalEdgeStyle;rounded=0;orthogonalLoop=1;jettySize=auto;html=1;" edge="1" parent="Qv55hIh1fnBiH20ml6r6-116" source="Qv55hIh1fnBiH20ml6r6-7" target="Qv55hIh1fnBiH20ml6r6-9">
          <mxGeometry y="10" as="geometry" />
        </mxCell>
        <mxCell id="Qv55hIh1fnBiH20ml6r6-11" value="消息邮箱是否&lt;br&gt;为空" style="rhombus;whiteSpace=wrap;html=1;container=0;" vertex="1" parent="Qv55hIh1fnBiH20ml6r6-116">
          <mxGeometry x="100" y="550" width="100" height="90" as="geometry" />
        </mxCell>
        <mxCell id="Qv55hIh1fnBiH20ml6r6-12" style="edgeStyle=orthogonalEdgeStyle;rounded=0;orthogonalLoop=1;jettySize=auto;html=1;exitX=0.5;exitY=1;exitDx=0;exitDy=0;entryX=0.5;entryY=0;entryDx=0;entryDy=0;" edge="1" parent="Qv55hIh1fnBiH20ml6r6-116" source="Qv55hIh1fnBiH20ml6r6-9" target="Qv55hIh1fnBiH20ml6r6-11">
          <mxGeometry y="10" as="geometry" />
        </mxCell>
        <mxCell id="Qv55hIh1fnBiH20ml6r6-13" value="读取消息；&lt;br&gt;解析消息内容；" style="whiteSpace=wrap;html=1;container=0;" vertex="1" parent="Qv55hIh1fnBiH20ml6r6-116">
          <mxGeometry x="270" y="565" width="220" height="60" as="geometry" />
        </mxCell>
        <mxCell id="Qv55hIh1fnBiH20ml6r6-14" value="" style="edgeStyle=orthogonalEdgeStyle;rounded=0;orthogonalLoop=1;jettySize=auto;html=1;" edge="1" parent="Qv55hIh1fnBiH20ml6r6-116" source="Qv55hIh1fnBiH20ml6r6-11" target="Qv55hIh1fnBiH20ml6r6-13">
          <mxGeometry y="10" as="geometry">
            <Array as="points">
              <mxPoint x="220" y="595" />
              <mxPoint x="220" y="595" />
            </Array>
          </mxGeometry>
        </mxCell>
        <mxCell id="Qv55hIh1fnBiH20ml6r6-15" value="否" style="edgeLabel;html=1;align=center;verticalAlign=middle;resizable=0;points=[];container=0;" vertex="1" connectable="0" parent="Qv55hIh1fnBiH20ml6r6-14">
          <mxGeometry x="-0.2619" y="-1" relative="1" as="geometry">
            <mxPoint as="offset" />
          </mxGeometry>
        </mxCell>
        <mxCell id="Qv55hIh1fnBiH20ml6r6-16" value="&lt;span&gt;Time消息邮箱格式：&lt;/span&gt;" style="rounded=0;whiteSpace=wrap;html=1;container=0;" vertex="1" parent="Qv55hIh1fnBiH20ml6r6-116">
          <mxGeometry x="310" y="150" width="120" height="60" as="geometry" />
        </mxCell>
        <mxCell id="Qv55hIh1fnBiH20ml6r6-18" style="edgeStyle=orthogonalEdgeStyle;rounded=0;orthogonalLoop=1;jettySize=auto;html=1;exitX=0.5;exitY=1;exitDx=0;exitDy=0;entryX=1;entryY=0.5;entryDx=0;entryDy=0;" edge="1" parent="Qv55hIh1fnBiH20ml6r6-116" source="Qv55hIh1fnBiH20ml6r6-13" target="Qv55hIh1fnBiH20ml6r6-26">
          <mxGeometry y="10" as="geometry">
            <mxPoint x="380" y="700" as="targetPoint" />
          </mxGeometry>
        </mxCell>
        <mxCell id="Qv55hIh1fnBiH20ml6r6-26" value="根据状态执行相关操作" style="rounded=0;whiteSpace=wrap;html=1;container=0;" vertex="1" parent="Qv55hIh1fnBiH20ml6r6-116">
          <mxGeometry x="70" y="880" width="160" height="60" as="geometry" />
        </mxCell>
        <mxCell id="Qv55hIh1fnBiH20ml6r6-27" value="" style="edgeStyle=orthogonalEdgeStyle;rounded=0;orthogonalLoop=1;jettySize=auto;html=1;entryX=0.5;entryY=0;entryDx=0;entryDy=0;" edge="1" parent="Qv55hIh1fnBiH20ml6r6-116" source="Qv55hIh1fnBiH20ml6r6-11" target="Qv55hIh1fnBiH20ml6r6-26">
          <mxGeometry y="10" as="geometry">
            <mxPoint x="150" y="880" as="targetPoint" />
          </mxGeometry>
        </mxCell>
        <mxCell id="Qv55hIh1fnBiH20ml6r6-28" value="是" style="edgeLabel;html=1;align=center;verticalAlign=middle;resizable=0;points=[];container=0;" vertex="1" connectable="0" parent="Qv55hIh1fnBiH20ml6r6-27">
          <mxGeometry x="-0.3153" y="-2" relative="1" as="geometry">
            <mxPoint x="2" as="offset" />
          </mxGeometry>
        </mxCell>
        <mxCell id="Qv55hIh1fnBiH20ml6r6-30" value="判断时间&lt;br&gt;状态" style="rhombus;whiteSpace=wrap;html=1;container=0;" vertex="1" parent="Qv55hIh1fnBiH20ml6r6-116">
          <mxGeometry x="280" y="1020" width="80" height="80" as="geometry" />
        </mxCell>
        <mxCell id="Qv55hIh1fnBiH20ml6r6-31" value="空闲" style="rounded=0;whiteSpace=wrap;html=1;container=0;" vertex="1" parent="Qv55hIh1fnBiH20ml6r6-116">
          <mxGeometry x="260" y="1140" width="120" height="60" as="geometry" />
        </mxCell>
        <mxCell id="Qv55hIh1fnBiH20ml6r6-32" style="edgeStyle=orthogonalEdgeStyle;rounded=0;orthogonalLoop=1;jettySize=auto;html=1;exitX=0.5;exitY=1;exitDx=0;exitDy=0;entryX=0.5;entryY=0;entryDx=0;entryDy=0;" edge="1" parent="Qv55hIh1fnBiH20ml6r6-116" source="Qv55hIh1fnBiH20ml6r6-30" target="Qv55hIh1fnBiH20ml6r6-31">
          <mxGeometry y="10" as="geometry" />
        </mxCell>
        <mxCell id="Qv55hIh1fnBiH20ml6r6-33" value="设置时间" style="rounded=0;whiteSpace=wrap;html=1;container=0;" vertex="1" parent="Qv55hIh1fnBiH20ml6r6-116">
          <mxGeometry x="460" y="1140" width="120" height="60" as="geometry" />
        </mxCell>
        <mxCell id="Qv55hIh1fnBiH20ml6r6-34" style="edgeStyle=orthogonalEdgeStyle;rounded=0;orthogonalLoop=1;jettySize=auto;html=1;exitX=1;exitY=0.5;exitDx=0;exitDy=0;entryX=0.5;entryY=0;entryDx=0;entryDy=0;" edge="1" parent="Qv55hIh1fnBiH20ml6r6-116" source="Qv55hIh1fnBiH20ml6r6-30" target="Qv55hIh1fnBiH20ml6r6-33">
          <mxGeometry y="10" as="geometry" />
        </mxCell>
        <mxCell id="Qv55hIh1fnBiH20ml6r6-35" value="设置闹钟" style="rounded=0;whiteSpace=wrap;html=1;container=0;" vertex="1" parent="Qv55hIh1fnBiH20ml6r6-116">
          <mxGeometry x="650" y="1140" width="120" height="60" as="geometry" />
        </mxCell>
        <mxCell id="Qv55hIh1fnBiH20ml6r6-36" style="edgeStyle=orthogonalEdgeStyle;rounded=0;orthogonalLoop=1;jettySize=auto;html=1;exitX=1;exitY=0.5;exitDx=0;exitDy=0;entryX=0.5;entryY=0;entryDx=0;entryDy=0;" edge="1" parent="Qv55hIh1fnBiH20ml6r6-116" source="Qv55hIh1fnBiH20ml6r6-30" target="Qv55hIh1fnBiH20ml6r6-35">
          <mxGeometry y="10" as="geometry" />
        </mxCell>
        <mxCell id="Qv55hIh1fnBiH20ml6r6-39" value="更新时间到当前时间；&lt;br&gt;检查闹钟是否触发；" style="whiteSpace=wrap;html=1;rounded=0;container=0;" vertex="1" parent="Qv55hIh1fnBiH20ml6r6-116">
          <mxGeometry x="247.5" y="1280" width="145" height="60" as="geometry" />
        </mxCell>
        <mxCell id="Qv55hIh1fnBiH20ml6r6-40" value="" style="edgeStyle=orthogonalEdgeStyle;rounded=0;orthogonalLoop=1;jettySize=auto;html=1;" edge="1" parent="Qv55hIh1fnBiH20ml6r6-116" source="Qv55hIh1fnBiH20ml6r6-31" target="Qv55hIh1fnBiH20ml6r6-39">
          <mxGeometry y="10" as="geometry" />
        </mxCell>
        <mxCell id="Qv55hIh1fnBiH20ml6r6-41" value="设置RTC时间" style="whiteSpace=wrap;html=1;rounded=0;container=0;" vertex="1" parent="Qv55hIh1fnBiH20ml6r6-116">
          <mxGeometry x="460" y="1280" width="120" height="60" as="geometry" />
        </mxCell>
        <mxCell id="Qv55hIh1fnBiH20ml6r6-42" style="edgeStyle=orthogonalEdgeStyle;rounded=0;orthogonalLoop=1;jettySize=auto;html=1;exitX=0.5;exitY=1;exitDx=0;exitDy=0;entryX=0.5;entryY=0;entryDx=0;entryDy=0;" edge="1" parent="Qv55hIh1fnBiH20ml6r6-116" source="Qv55hIh1fnBiH20ml6r6-33" target="Qv55hIh1fnBiH20ml6r6-41">
          <mxGeometry y="10" as="geometry" />
        </mxCell>
        <mxCell id="Qv55hIh1fnBiH20ml6r6-43" value="设置闹钟检查相关信息；" style="whiteSpace=wrap;html=1;rounded=0;container=0;" vertex="1" parent="Qv55hIh1fnBiH20ml6r6-116">
          <mxGeometry x="625" y="1280" width="170" height="60" as="geometry" />
        </mxCell>
        <mxCell id="Qv55hIh1fnBiH20ml6r6-44" style="edgeStyle=orthogonalEdgeStyle;rounded=0;orthogonalLoop=1;jettySize=auto;html=1;exitX=0.5;exitY=1;exitDx=0;exitDy=0;entryX=0.5;entryY=0;entryDx=0;entryDy=0;" edge="1" parent="Qv55hIh1fnBiH20ml6r6-116" source="Qv55hIh1fnBiH20ml6r6-35" target="Qv55hIh1fnBiH20ml6r6-43">
          <mxGeometry y="10" as="geometry" />
        </mxCell>
        <mxCell id="Qv55hIh1fnBiH20ml6r6-49" style="edgeStyle=orthogonalEdgeStyle;rounded=0;orthogonalLoop=1;jettySize=auto;html=1;exitX=0;exitY=0.5;exitDx=0;exitDy=0;entryX=0;entryY=0.5;entryDx=0;entryDy=0;" edge="1" parent="Qv55hIh1fnBiH20ml6r6-116" source="Qv55hIh1fnBiH20ml6r6-50" target="Qv55hIh1fnBiH20ml6r6-11">
          <mxGeometry y="10" as="geometry">
            <Array as="points">
              <mxPoint y="1310" />
              <mxPoint y="595" />
            </Array>
          </mxGeometry>
        </mxCell>
        <mxCell id="Qv55hIh1fnBiH20ml6r6-50" value="延时500ms" style="rounded=0;whiteSpace=wrap;html=1;container=0;" vertex="1" parent="Qv55hIh1fnBiH20ml6r6-116">
          <mxGeometry x="90" y="1280" width="120" height="60" as="geometry" />
        </mxCell>
        <mxCell id="Qv55hIh1fnBiH20ml6r6-51" style="edgeStyle=orthogonalEdgeStyle;rounded=0;orthogonalLoop=1;jettySize=auto;html=1;exitX=0.5;exitY=1;exitDx=0;exitDy=0;entryX=0.5;entryY=0;entryDx=0;entryDy=0;" edge="1" parent="Qv55hIh1fnBiH20ml6r6-116" source="Qv55hIh1fnBiH20ml6r6-26" target="Qv55hIh1fnBiH20ml6r6-50">
          <mxGeometry y="10" as="geometry" />
        </mxCell>
        <mxCell id="Qv55hIh1fnBiH20ml6r6-52" value="" style="shape=flexArrow;endArrow=classic;html=1;entryX=0;entryY=0;entryDx=0;entryDy=0;exitX=1;exitY=1;exitDx=0;exitDy=0;" edge="1" parent="Qv55hIh1fnBiH20ml6r6-116" source="Qv55hIh1fnBiH20ml6r6-26" target="Qv55hIh1fnBiH20ml6r6-3">
          <mxGeometry y="10" width="50" height="50" as="geometry">
            <mxPoint x="200" y="1010" as="sourcePoint" />
            <mxPoint x="250" y="960" as="targetPoint" />
          </mxGeometry>
        </mxCell>
        <mxCell id="Qv55hIh1fnBiH20ml6r6-56" value="初始化RTC驱动；&lt;br&gt;空闲状态下更新系统时间，检查闹钟；&lt;br&gt;设置时间状态下根据参数设置系统时间；&lt;br&gt;闹钟设置状态根据参数配置闹钟；" style="whiteSpace=wrap;html=1;rounded=1;container=0;" vertex="1" parent="Qv55hIh1fnBiH20ml6r6-116">
          <mxGeometry x="285" width="235" height="80" as="geometry" />
        </mxCell>
        <mxCell id="Qv55hIh1fnBiH20ml6r6-57" value="" style="edgeStyle=orthogonalEdgeStyle;rounded=0;orthogonalLoop=1;jettySize=auto;html=1;" edge="1" parent="Qv55hIh1fnBiH20ml6r6-116" source="Qv55hIh1fnBiH20ml6r6-4" target="Qv55hIh1fnBiH20ml6r6-56">
          <mxGeometry as="geometry" />
        </mxCell>
        <mxCell id="Qv55hIh1fnBiH20ml6r6-63" value="Lora应用线程" style="rounded=1;whiteSpace=wrap;html=1;" vertex="1" parent="WIyWlLk6GJQsqaUBKTNV-1">
          <mxGeometry x="2410" y="80" width="120" height="60" as="geometry" />
        </mxCell>
        <mxCell id="Qv55hIh1fnBiH20ml6r6-64" value="Lora线程资源初始化：&lt;br&gt;Lora消息队列初始化、&lt;br&gt;Lora线程处理函数初始化、" style="whiteSpace=wrap;html=1;rounded=1;" vertex="1" parent="WIyWlLk6GJQsqaUBKTNV-1">
          <mxGeometry x="2380" y="220" width="180" height="60" as="geometry" />
        </mxCell>
        <mxCell id="Qv55hIh1fnBiH20ml6r6-65" value="" style="edgeStyle=orthogonalEdgeStyle;rounded=0;orthogonalLoop=1;jettySize=auto;html=1;" edge="1" parent="WIyWlLk6GJQsqaUBKTNV-1" source="Qv55hIh1fnBiH20ml6r6-63" target="Qv55hIh1fnBiH20ml6r6-64">
          <mxGeometry x="2320" y="80" as="geometry" />
        </mxCell>
        <mxCell id="Qv55hIh1fnBiH20ml6r6-66" value="LED线程处理函数" style="whiteSpace=wrap;html=1;rounded=1;" vertex="1" parent="WIyWlLk6GJQsqaUBKTNV-1">
          <mxGeometry x="2410" y="360" width="120" height="60" as="geometry" />
        </mxCell>
        <mxCell id="Qv55hIh1fnBiH20ml6r6-67" value="" style="edgeStyle=orthogonalEdgeStyle;rounded=0;orthogonalLoop=1;jettySize=auto;html=1;" edge="1" parent="WIyWlLk6GJQsqaUBKTNV-1" source="Qv55hIh1fnBiH20ml6r6-64" target="Qv55hIh1fnBiH20ml6r6-66">
          <mxGeometry x="2320" y="80" as="geometry" />
        </mxCell>
        <mxCell id="Qv55hIh1fnBiH20ml6r6-68" value="初始化Lora硬件资源；" style="whiteSpace=wrap;html=1;rounded=1;" vertex="1" parent="WIyWlLk6GJQsqaUBKTNV-1">
          <mxGeometry x="2405" y="500" width="130" height="60" as="geometry" />
        </mxCell>
        <mxCell id="Qv55hIh1fnBiH20ml6r6-69" value="" style="edgeStyle=orthogonalEdgeStyle;rounded=0;orthogonalLoop=1;jettySize=auto;html=1;" edge="1" parent="WIyWlLk6GJQsqaUBKTNV-1" source="Qv55hIh1fnBiH20ml6r6-66" target="Qv55hIh1fnBiH20ml6r6-68">
          <mxGeometry x="2320" y="80" as="geometry" />
        </mxCell>
        <mxCell id="Qv55hIh1fnBiH20ml6r6-71" style="edgeStyle=orthogonalEdgeStyle;rounded=0;orthogonalLoop=1;jettySize=auto;html=1;exitX=0.5;exitY=1;exitDx=0;exitDy=0;entryX=0.5;entryY=0;entryDx=0;entryDy=0;" edge="1" parent="WIyWlLk6GJQsqaUBKTNV-1" source="Qv55hIh1fnBiH20ml6r6-68" target="Qv55hIh1fnBiH20ml6r6-72">
          <mxGeometry x="2320" y="80" as="geometry">
            <mxPoint x="2470" y="620" as="targetPoint" />
          </mxGeometry>
        </mxCell>
        <mxCell id="Qv55hIh1fnBiH20ml6r6-120" style="edgeStyle=orthogonalEdgeStyle;rounded=0;orthogonalLoop=1;jettySize=auto;html=1;exitX=0.5;exitY=1;exitDx=0;exitDy=0;" edge="1" parent="WIyWlLk6GJQsqaUBKTNV-1" source="Qv55hIh1fnBiH20ml6r6-72" target="Qv55hIh1fnBiH20ml6r6-89">
          <mxGeometry relative="1" as="geometry" />
        </mxCell>
        <mxCell id="Qv55hIh1fnBiH20ml6r6-72" value="读取消息；&lt;br&gt;解析消息内容；" style="whiteSpace=wrap;html=1;" vertex="1" parent="WIyWlLk6GJQsqaUBKTNV-1">
          <mxGeometry x="2360" y="640" width="220" height="60" as="geometry" />
        </mxCell>
        <mxCell id="Qv55hIh1fnBiH20ml6r6-75" value="&lt;span&gt;LED消息邮箱结构：&lt;/span&gt;" style="rounded=0;whiteSpace=wrap;html=1;" vertex="1" parent="WIyWlLk6GJQsqaUBKTNV-1">
          <mxGeometry x="2650" y="350" width="120" height="60" as="geometry" />
        </mxCell>
        <mxCell id="Qv55hIh1fnBiH20ml6r6-89" value="判断消息状态" style="rhombus;whiteSpace=wrap;html=1;" vertex="1" parent="WIyWlLk6GJQsqaUBKTNV-1">
          <mxGeometry x="2430" y="770" width="80" height="80" as="geometry" />
        </mxCell>
        <mxCell id="Qv55hIh1fnBiH20ml6r6-90" value="控制" style="rounded=0;whiteSpace=wrap;html=1;" vertex="1" parent="WIyWlLk6GJQsqaUBKTNV-1">
          <mxGeometry x="2410" y="920" width="120" height="60" as="geometry" />
        </mxCell>
        <mxCell id="Qv55hIh1fnBiH20ml6r6-91" style="edgeStyle=orthogonalEdgeStyle;rounded=0;orthogonalLoop=1;jettySize=auto;html=1;exitX=0.5;exitY=1;exitDx=0;exitDy=0;entryX=0.5;entryY=0;entryDx=0;entryDy=0;" edge="1" parent="WIyWlLk6GJQsqaUBKTNV-1" source="Qv55hIh1fnBiH20ml6r6-89" target="Qv55hIh1fnBiH20ml6r6-90">
          <mxGeometry x="2170" y="-210" as="geometry" />
        </mxCell>
        <mxCell id="Qv55hIh1fnBiH20ml6r6-92" value="读取" style="rounded=0;whiteSpace=wrap;html=1;" vertex="1" parent="WIyWlLk6GJQsqaUBKTNV-1">
          <mxGeometry x="2630" y="920" width="120" height="60" as="geometry" />
        </mxCell>
        <mxCell id="Qv55hIh1fnBiH20ml6r6-93" style="edgeStyle=orthogonalEdgeStyle;rounded=0;orthogonalLoop=1;jettySize=auto;html=1;exitX=1;exitY=0.5;exitDx=0;exitDy=0;entryX=0.5;entryY=0;entryDx=0;entryDy=0;" edge="1" parent="WIyWlLk6GJQsqaUBKTNV-1" source="Qv55hIh1fnBiH20ml6r6-89" target="Qv55hIh1fnBiH20ml6r6-92">
          <mxGeometry x="2170" y="-210" as="geometry" />
        </mxCell>
        <mxCell id="Qv55hIh1fnBiH20ml6r6-94" value="写入" style="rounded=0;whiteSpace=wrap;html=1;" vertex="1" parent="WIyWlLk6GJQsqaUBKTNV-1">
          <mxGeometry x="2820" y="920" width="120" height="60" as="geometry" />
        </mxCell>
        <mxCell id="Qv55hIh1fnBiH20ml6r6-95" style="edgeStyle=orthogonalEdgeStyle;rounded=0;orthogonalLoop=1;jettySize=auto;html=1;exitX=1;exitY=0.5;exitDx=0;exitDy=0;entryX=0.5;entryY=0;entryDx=0;entryDy=0;" edge="1" parent="WIyWlLk6GJQsqaUBKTNV-1" source="Qv55hIh1fnBiH20ml6r6-89" target="Qv55hIh1fnBiH20ml6r6-94">
          <mxGeometry x="2170" y="-210" as="geometry" />
        </mxCell>
        <mxCell id="Qv55hIh1fnBiH20ml6r6-117" style="edgeStyle=orthogonalEdgeStyle;rounded=0;orthogonalLoop=1;jettySize=auto;html=1;exitX=0.5;exitY=1;exitDx=0;exitDy=0;entryX=0.5;entryY=0;entryDx=0;entryDy=0;" edge="1" parent="WIyWlLk6GJQsqaUBKTNV-1" source="Qv55hIh1fnBiH20ml6r6-98" target="Qv55hIh1fnBiH20ml6r6-109">
          <mxGeometry relative="1" as="geometry" />
        </mxCell>
        <mxCell id="Qv55hIh1fnBiH20ml6r6-98" value="根据控制指令执行" style="whiteSpace=wrap;html=1;rounded=0;" vertex="1" parent="WIyWlLk6GJQsqaUBKTNV-1">
          <mxGeometry x="2410" y="1060" width="120" height="60" as="geometry" />
        </mxCell>
        <mxCell id="Qv55hIh1fnBiH20ml6r6-99" value="" style="edgeStyle=orthogonalEdgeStyle;rounded=0;orthogonalLoop=1;jettySize=auto;html=1;" edge="1" parent="WIyWlLk6GJQsqaUBKTNV-1" source="Qv55hIh1fnBiH20ml6r6-90" target="Qv55hIh1fnBiH20ml6r6-98">
          <mxGeometry x="2170" y="-210" as="geometry" />
        </mxCell>
        <mxCell id="Qv55hIh1fnBiH20ml6r6-118" style="edgeStyle=orthogonalEdgeStyle;rounded=0;orthogonalLoop=1;jettySize=auto;html=1;exitX=0.5;exitY=1;exitDx=0;exitDy=0;entryX=1;entryY=0.5;entryDx=0;entryDy=0;" edge="1" parent="WIyWlLk6GJQsqaUBKTNV-1" source="Qv55hIh1fnBiH20ml6r6-100" target="Qv55hIh1fnBiH20ml6r6-109">
          <mxGeometry relative="1" as="geometry" />
        </mxCell>
        <mxCell id="Qv55hIh1fnBiH20ml6r6-100" value="解析消息内容" style="whiteSpace=wrap;html=1;rounded=0;" vertex="1" parent="WIyWlLk6GJQsqaUBKTNV-1">
          <mxGeometry x="2630" y="1060" width="120" height="60" as="geometry" />
        </mxCell>
        <mxCell id="Qv55hIh1fnBiH20ml6r6-101" style="edgeStyle=orthogonalEdgeStyle;rounded=0;orthogonalLoop=1;jettySize=auto;html=1;exitX=0.5;exitY=1;exitDx=0;exitDy=0;entryX=0.5;entryY=0;entryDx=0;entryDy=0;" edge="1" parent="WIyWlLk6GJQsqaUBKTNV-1" source="Qv55hIh1fnBiH20ml6r6-92" target="Qv55hIh1fnBiH20ml6r6-100">
          <mxGeometry x="2170" y="-210" as="geometry" />
        </mxCell>
        <mxCell id="Qv55hIh1fnBiH20ml6r6-119" style="edgeStyle=orthogonalEdgeStyle;rounded=0;orthogonalLoop=1;jettySize=auto;html=1;exitX=0.5;exitY=1;exitDx=0;exitDy=0;entryX=1;entryY=0.5;entryDx=0;entryDy=0;" edge="1" parent="WIyWlLk6GJQsqaUBKTNV-1" source="Qv55hIh1fnBiH20ml6r6-102" target="Qv55hIh1fnBiH20ml6r6-109">
          <mxGeometry relative="1" as="geometry">
            <mxPoint x="2670" y="1230.0000000000002" as="targetPoint" />
          </mxGeometry>
        </mxCell>
        <mxCell id="Qv55hIh1fnBiH20ml6r6-102" value="发送消息" style="whiteSpace=wrap;html=1;rounded=0;" vertex="1" parent="WIyWlLk6GJQsqaUBKTNV-1">
          <mxGeometry x="2820" y="1060" width="120" height="60" as="geometry" />
        </mxCell>
        <mxCell id="Qv55hIh1fnBiH20ml6r6-103" style="edgeStyle=orthogonalEdgeStyle;rounded=0;orthogonalLoop=1;jettySize=auto;html=1;exitX=0.5;exitY=1;exitDx=0;exitDy=0;entryX=0.5;entryY=0;entryDx=0;entryDy=0;" edge="1" parent="WIyWlLk6GJQsqaUBKTNV-1" source="Qv55hIh1fnBiH20ml6r6-94" target="Qv55hIh1fnBiH20ml6r6-102">
          <mxGeometry x="2170" y="-210" as="geometry" />
        </mxCell>
        <mxCell id="Qv55hIh1fnBiH20ml6r6-108" style="edgeStyle=orthogonalEdgeStyle;rounded=0;orthogonalLoop=1;jettySize=auto;html=1;exitX=0;exitY=0.5;exitDx=0;exitDy=0;entryX=0;entryY=0.5;entryDx=0;entryDy=0;" edge="1" parent="WIyWlLk6GJQsqaUBKTNV-1" source="Qv55hIh1fnBiH20ml6r6-109" target="Qv55hIh1fnBiH20ml6r6-72">
          <mxGeometry x="2320" y="80" as="geometry">
            <Array as="points">
              <mxPoint x="2320" y="1210" />
              <mxPoint x="2320" y="670" />
            </Array>
            <mxPoint x="2420" y="665" as="targetPoint" />
          </mxGeometry>
        </mxCell>
        <mxCell id="Qv55hIh1fnBiH20ml6r6-109" value="延时10ms" style="rounded=0;whiteSpace=wrap;html=1;" vertex="1" parent="WIyWlLk6GJQsqaUBKTNV-1">
          <mxGeometry x="2410" y="1180" width="120" height="60" as="geometry" />
        </mxCell>
        <mxCell id="Qv55hIh1fnBiH20ml6r6-112" value="接收Lora消息队列处理相关信息；&lt;br&gt;&lt;div&gt;&lt;span&gt;控制状态下消息内容对应模块控制：&lt;/span&gt;&lt;/div&gt;&lt;div&gt;&lt;ul&gt;&lt;li&gt;ON：打开模块电源&lt;/li&gt;&lt;li&gt;OFF：关闭模块电源&lt;/li&gt;&lt;li&gt;RESET：模块复位&lt;/li&gt;&lt;li&gt;GetParam：获取模块参数&lt;/li&gt;&lt;li&gt;SetParam：设置模块参数&lt;/li&gt;&lt;/ul&gt;&lt;/div&gt;写入状态下根据消息内容发送数据；&lt;br&gt;读取状态下根据消息内容解析数据；" style="whiteSpace=wrap;html=1;rounded=1;align=center;" vertex="1" parent="WIyWlLk6GJQsqaUBKTNV-1">
          <mxGeometry x="2660" y="20" width="250" height="180" as="geometry" />
        </mxCell>
        <mxCell id="Qv55hIh1fnBiH20ml6r6-113" value="" style="edgeStyle=orthogonalEdgeStyle;rounded=0;orthogonalLoop=1;jettySize=auto;html=1;" edge="1" parent="WIyWlLk6GJQsqaUBKTNV-1" source="Qv55hIh1fnBiH20ml6r6-63" target="Qv55hIh1fnBiH20ml6r6-112">
          <mxGeometry x="2320" y="80" as="geometry" />
        </mxCell>
      </root>
    </mxGraphModel>
  </diagram>
</mxfile>
